<mxfile host="app.diagrams.net" modified="2023-06-30T08:26:40.959Z" agent="Mozilla/5.0 (Windows NT 10.0; Win64; x64) AppleWebKit/537.36 (KHTML, like Gecko) Chrome/114.0.0.0 Safari/537.36" etag="KpWOir4CnH1VwJ16Slrt" version="21.3.8" type="github">
  <diagram name="Page-1" id="e7e014a7-5840-1c2e-5031-d8a46d1fe8dd">
    <mxGraphModel dx="2391" dy="1137" grid="0" gridSize="10" guides="1" tooltips="1" connect="1" arrows="1" fold="1" page="1" pageScale="1" pageWidth="1169" pageHeight="826" background="none" math="0" shadow="0">
      <root>
        <mxCell id="0" />
        <mxCell id="1" parent="0" />
        <mxCell id="2" value="TakeCare" style="swimlane;whiteSpace=wrap" parent="1" vertex="1">
          <mxGeometry x="164.5" y="128" width="280" height="1332" as="geometry" />
        </mxCell>
        <mxCell id="5" value="" style="ellipse;shape=startState;fillColor=#000000;strokeColor=#ff0000;" parent="2" vertex="1">
          <mxGeometry x="125" y="52" width="30" height="30" as="geometry" />
        </mxCell>
        <mxCell id="6" value="" style="edgeStyle=elbowEdgeStyle;elbow=horizontal;verticalAlign=bottom;endArrow=open;endSize=8;strokeColor=#151414;endFill=1;rounded=0" parent="2" source="5" target="7" edge="1">
          <mxGeometry x="100" y="40" as="geometry">
            <mxPoint x="115" y="110" as="targetPoint" />
          </mxGeometry>
        </mxCell>
        <mxCell id="7" value="Gör en beställning&#xa;RIDnr" style="fillColor=#d5e8d4;strokeColor=#82b366;" parent="2" vertex="1">
          <mxGeometry x="85" y="110" width="110" height="50" as="geometry" />
        </mxCell>
        <mxCell id="8" value="Skickar prov" style="" parent="2" vertex="1">
          <mxGeometry x="85" y="222" width="110" height="50" as="geometry" />
        </mxCell>
        <mxCell id="9" value="" style="endArrow=open;strokeColor=#151414;endFill=1;rounded=0" parent="2" source="7" target="8" edge="1">
          <mxGeometry relative="1" as="geometry" />
        </mxCell>
        <mxCell id="uIN8I7wuexz1z4Zl7SvW-87" value="Tar emot svar på Molekylärpatologi" style="rounded=0;whiteSpace=wrap;html=1;" parent="2" vertex="1">
          <mxGeometry x="100" y="1122" width="120" height="60" as="geometry" />
        </mxCell>
        <mxCell id="uIN8I7wuexz1z4Zl7SvW-74" value="Tar emot svar från Patologi" style="rounded=0;whiteSpace=wrap;html=1;" parent="2" vertex="1">
          <mxGeometry x="85.5" y="791" width="120" height="60" as="geometry" />
        </mxCell>
        <mxCell id="3" value="Pre analytix" style="swimlane;whiteSpace=wrap" parent="1" vertex="1">
          <mxGeometry x="444.5" y="128" width="280" height="1332" as="geometry" />
        </mxCell>
        <mxCell id="uIN8I7wuexz1z4Zl7SvW-42" style="edgeStyle=orthogonalEdgeStyle;rounded=0;orthogonalLoop=1;jettySize=auto;html=1;entryX=0.5;entryY=0.467;entryDx=0;entryDy=0;entryPerimeter=0;dashed=1;dashPattern=8 8;" parent="3" source="15" target="25" edge="1">
          <mxGeometry relative="1" as="geometry" />
        </mxCell>
        <mxCell id="15" value="Ankomstregistrerar&#xa;RIDnr" style="" parent="3" vertex="1">
          <mxGeometry x="85.5" y="110" width="110" height="50" as="geometry" />
        </mxCell>
        <mxCell id="25" value="" style="shape=line;strokeWidth=6;strokeColor=#050505;rotation=90" parent="3" vertex="1">
          <mxGeometry x="205.5" y="127.5" width="50" height="15" as="geometry" />
        </mxCell>
        <mxCell id="4" value="Sympathy" style="swimlane;whiteSpace=wrap;strokeColor=#000000;" parent="1" vertex="1">
          <mxGeometry x="724.5" y="128" width="280" height="1332" as="geometry" />
        </mxCell>
        <mxCell id="uIN8I7wuexz1z4Zl7SvW-52" value="" style="edgeStyle=orthogonalEdgeStyle;rounded=0;orthogonalLoop=1;jettySize=auto;html=1;" parent="4" source="uIN8I7wuexz1z4Zl7SvW-47" target="uIN8I7wuexz1z4Zl7SvW-51" edge="1">
          <mxGeometry relative="1" as="geometry" />
        </mxCell>
        <mxCell id="uIN8I7wuexz1z4Zl7SvW-47" value="Tar emot remiss &#xa;(LIDnr)" style="" parent="4" vertex="1">
          <mxGeometry x="75.5" y="110" width="110" height="50" as="geometry" />
        </mxCell>
        <mxCell id="uIN8I7wuexz1z4Zl7SvW-51" value="Provhantering&lt;br&gt;(Snittning, inbäddning färgning etc.)" style="whiteSpace=wrap;html=1;fillColor=#fff2cc;strokeColor=#d6b656;" parent="4" vertex="1">
          <mxGeometry x="70.5" y="192" width="120" height="60" as="geometry" />
        </mxCell>
        <mxCell id="uIN8I7wuexz1z4Zl7SvW-77" value="" style="edgeStyle=orthogonalEdgeStyle;rounded=0;orthogonalLoop=1;jettySize=auto;html=1;" parent="4" source="uIN8I7wuexz1z4Zl7SvW-71" target="uIN8I7wuexz1z4Zl7SvW-76" edge="1">
          <mxGeometry relative="1" as="geometry" />
        </mxCell>
        <mxCell id="uIN8I7wuexz1z4Zl7SvW-71" value="Sammanfattar svar" style="whiteSpace=wrap;html=1;rounded=0;fillColor=#d5e8d4;strokeColor=#82b366;" parent="4" vertex="1">
          <mxGeometry x="85.5" y="692" width="120" height="60" as="geometry" />
        </mxCell>
        <mxCell id="uIN8I7wuexz1z4Zl7SvW-79" value="" style="edgeStyle=orthogonalEdgeStyle;rounded=0;orthogonalLoop=1;jettySize=auto;html=1;" parent="4" source="uIN8I7wuexz1z4Zl7SvW-76" target="uIN8I7wuexz1z4Zl7SvW-78" edge="1">
          <mxGeometry relative="1" as="geometry" />
        </mxCell>
        <mxCell id="uIN8I7wuexz1z4Zl7SvW-76" value="Skriver remiss för kompletterande Molekylärutredning" style="whiteSpace=wrap;html=1;rounded=0;fillColor=#d5e8d4;strokeColor=#82b366;" parent="4" vertex="1">
          <mxGeometry x="85.5" y="792" width="120" height="60" as="geometry" />
        </mxCell>
        <mxCell id="uIN8I7wuexz1z4Zl7SvW-78" value="Molekylär provhantering på papper" style="whiteSpace=wrap;html=1;rounded=0;strokeColor=#d6b656;fillColor=#fff2cc;" parent="4" vertex="1">
          <mxGeometry x="85.5" y="882" width="120" height="60" as="geometry" />
        </mxCell>
        <mxCell id="uIN8I7wuexz1z4Zl7SvW-70" value="Dokumenterar mikro och Makro på papper" style="rounded=0;whiteSpace=wrap;html=1;strokeColor=#82b366;fillColor=#d5e8d4;" parent="4" vertex="1">
          <mxGeometry x="85.5" y="602" width="120" height="60" as="geometry" />
        </mxCell>
        <mxCell id="uIN8I7wuexz1z4Zl7SvW-72" value="" style="edgeStyle=orthogonalEdgeStyle;rounded=0;orthogonalLoop=1;jettySize=auto;html=1;" parent="4" source="uIN8I7wuexz1z4Zl7SvW-70" target="uIN8I7wuexz1z4Zl7SvW-71" edge="1">
          <mxGeometry relative="1" as="geometry" />
        </mxCell>
        <mxCell id="uIN8I7wuexz1z4Zl7SvW-41" style="edgeStyle=orthogonalEdgeStyle;rounded=0;orthogonalLoop=1;jettySize=auto;html=1;dashed=1;dashPattern=8 8;" parent="1" source="7" target="15" edge="1">
          <mxGeometry relative="1" as="geometry" />
        </mxCell>
        <mxCell id="uIN8I7wuexz1z4Zl7SvW-46" value="Orderpportalen" style="swimlane;whiteSpace=wrap" parent="1" vertex="1">
          <mxGeometry x="1284.5" y="128" width="280" height="1332" as="geometry" />
        </mxCell>
        <mxCell id="uIN8I7wuexz1z4Zl7SvW-82" value="Lägger besällning på gensekvensering (Case-ID)" style="rounded=0;whiteSpace=wrap;html=1;" parent="uIN8I7wuexz1z4Zl7SvW-46" vertex="1">
          <mxGeometry x="80" y="952" width="120" height="60" as="geometry" />
        </mxCell>
        <mxCell id="uIN8I7wuexz1z4Zl7SvW-44" style="edgeStyle=orthogonalEdgeStyle;rounded=0;orthogonalLoop=1;jettySize=auto;html=1;entryX=0;entryY=0.5;entryDx=0;entryDy=0;dashed=1;dashPattern=8 8;" parent="1" source="25" target="uIN8I7wuexz1z4Zl7SvW-47" edge="1">
          <mxGeometry relative="1" as="geometry">
            <mxPoint x="750" y="263" as="targetPoint" />
          </mxGeometry>
        </mxCell>
        <mxCell id="uIN8I7wuexz1z4Zl7SvW-61" style="edgeStyle=orthogonalEdgeStyle;rounded=0;orthogonalLoop=1;jettySize=auto;html=1;dashed=1;dashPattern=8 8;entryX=0.5;entryY=-0.047;entryDx=0;entryDy=0;entryPerimeter=0;" parent="1" source="uIN8I7wuexz1z4Zl7SvW-47" target="uIN8I7wuexz1z4Zl7SvW-173" edge="1">
          <mxGeometry relative="1" as="geometry">
            <mxPoint x="1144.571428571429" y="600" as="targetPoint" />
          </mxGeometry>
        </mxCell>
        <mxCell id="uIN8I7wuexz1z4Zl7SvW-63" style="edgeStyle=orthogonalEdgeStyle;rounded=0;orthogonalLoop=1;jettySize=auto;html=1;entryX=0.5;entryY=0;entryDx=0;entryDy=0;dashed=1;dashPattern=8 8;" parent="1" source="uIN8I7wuexz1z4Zl7SvW-51" target="uIN8I7wuexz1z4Zl7SvW-173" edge="1">
          <mxGeometry relative="1" as="geometry">
            <mxPoint x="1144.5" y="600" as="targetPoint" />
          </mxGeometry>
        </mxCell>
        <mxCell id="uIN8I7wuexz1z4Zl7SvW-66" value="IDS7" style="swimlane;whiteSpace=wrap;" parent="1" vertex="1">
          <mxGeometry x="1004.5" y="128" width="280" height="1332" as="geometry" />
        </mxCell>
        <mxCell id="uIN8I7wuexz1z4Zl7SvW-67" value="Mikro och makroanalys" style="rounded=0;whiteSpace=wrap;html=1;" parent="uIN8I7wuexz1z4Zl7SvW-66" vertex="1">
          <mxGeometry x="80" y="532" width="120" height="60" as="geometry" />
        </mxCell>
        <mxCell id="uIN8I7wuexz1z4Zl7SvW-174" style="edgeStyle=orthogonalEdgeStyle;rounded=0;orthogonalLoop=1;jettySize=auto;html=1;entryX=0.5;entryY=0;entryDx=0;entryDy=0;" parent="uIN8I7wuexz1z4Zl7SvW-66" source="uIN8I7wuexz1z4Zl7SvW-173" target="uIN8I7wuexz1z4Zl7SvW-67" edge="1">
          <mxGeometry relative="1" as="geometry" />
        </mxCell>
        <mxCell id="uIN8I7wuexz1z4Zl7SvW-173" value="Inmatning av&lt;br&gt;meta(kontext)-data för bilder" style="rounded=0;whiteSpace=wrap;html=1;" parent="uIN8I7wuexz1z4Zl7SvW-66" vertex="1">
          <mxGeometry x="80" y="452" width="120" height="60" as="geometry" />
        </mxCell>
        <mxCell id="uIN8I7wuexz1z4Zl7SvW-53" value="Inscanning" style="whiteSpace=wrap;html=1;" parent="uIN8I7wuexz1z4Zl7SvW-66" vertex="1">
          <mxGeometry x="80" y="285" width="120" height="60" as="geometry" />
        </mxCell>
        <mxCell id="uIN8I7wuexz1z4Zl7SvW-64" style="edgeStyle=orthogonalEdgeStyle;rounded=0;orthogonalLoop=1;jettySize=auto;html=1;dashed=1;dashPattern=8 8;entryX=0.5;entryY=0;entryDx=0;entryDy=0;" parent="uIN8I7wuexz1z4Zl7SvW-66" source="uIN8I7wuexz1z4Zl7SvW-53" target="uIN8I7wuexz1z4Zl7SvW-173" edge="1">
          <mxGeometry relative="1" as="geometry">
            <mxPoint x="140.5" y="532" as="targetPoint" />
          </mxGeometry>
        </mxCell>
        <mxCell id="uIN8I7wuexz1z4Zl7SvW-55" value="Ärendetilldelning" style="whiteSpace=wrap;html=1;" parent="uIN8I7wuexz1z4Zl7SvW-66" vertex="1">
          <mxGeometry x="80" y="372" width="120" height="60" as="geometry" />
        </mxCell>
        <mxCell id="uIN8I7wuexz1z4Zl7SvW-68" style="edgeStyle=orthogonalEdgeStyle;rounded=0;orthogonalLoop=1;jettySize=auto;html=1;entryX=0.5;entryY=0;entryDx=0;entryDy=0;dashed=1;dashPattern=8 8;" parent="uIN8I7wuexz1z4Zl7SvW-66" source="uIN8I7wuexz1z4Zl7SvW-55" target="uIN8I7wuexz1z4Zl7SvW-173" edge="1">
          <mxGeometry relative="1" as="geometry" />
        </mxCell>
        <mxCell id="uIN8I7wuexz1z4Zl7SvW-56" value="" style="edgeStyle=orthogonalEdgeStyle;rounded=0;orthogonalLoop=1;jettySize=auto;html=1;" parent="uIN8I7wuexz1z4Zl7SvW-66" source="uIN8I7wuexz1z4Zl7SvW-53" target="uIN8I7wuexz1z4Zl7SvW-55" edge="1">
          <mxGeometry relative="1" as="geometry" />
        </mxCell>
        <mxCell id="uIN8I7wuexz1z4Zl7SvW-69" style="edgeStyle=orthogonalEdgeStyle;rounded=0;orthogonalLoop=1;jettySize=auto;html=1;" parent="1" source="uIN8I7wuexz1z4Zl7SvW-67" target="uIN8I7wuexz1z4Zl7SvW-70" edge="1">
          <mxGeometry relative="1" as="geometry">
            <mxPoint x="870" y="810" as="targetPoint" />
            <Array as="points">
              <mxPoint x="1150" y="760" />
            </Array>
          </mxGeometry>
        </mxCell>
        <mxCell id="uIN8I7wuexz1z4Zl7SvW-73" style="edgeStyle=orthogonalEdgeStyle;rounded=0;orthogonalLoop=1;jettySize=auto;html=1;dashed=1;dashPattern=8 8;" parent="1" source="uIN8I7wuexz1z4Zl7SvW-71" target="uIN8I7wuexz1z4Zl7SvW-74" edge="1">
          <mxGeometry relative="1" as="geometry">
            <mxPoint x="310" y="950" as="targetPoint" />
          </mxGeometry>
        </mxCell>
        <mxCell id="uIN8I7wuexz1z4Zl7SvW-80" value="Curator/MTBP" style="swimlane;whiteSpace=wrap" parent="1" vertex="1">
          <mxGeometry x="1564.5" y="128" width="280" height="1332" as="geometry" />
        </mxCell>
        <mxCell id="uIN8I7wuexz1z4Zl7SvW-84" value="Analys av gensekvenseringen" style="rounded=0;whiteSpace=wrap;html=1;fillColor=#fff2cc;strokeColor=#d6b656;" parent="uIN8I7wuexz1z4Zl7SvW-80" vertex="1">
          <mxGeometry x="80" y="1062" width="120" height="60" as="geometry" />
        </mxCell>
        <mxCell id="uIN8I7wuexz1z4Zl7SvW-81" style="edgeStyle=orthogonalEdgeStyle;rounded=0;orthogonalLoop=1;jettySize=auto;html=1;" parent="1" source="uIN8I7wuexz1z4Zl7SvW-78" target="uIN8I7wuexz1z4Zl7SvW-82" edge="1">
          <mxGeometry relative="1" as="geometry">
            <mxPoint x="1380" y="1040" as="targetPoint" />
            <Array as="points">
              <mxPoint x="870" y="1110" />
            </Array>
          </mxGeometry>
        </mxCell>
        <mxCell id="uIN8I7wuexz1z4Zl7SvW-83" style="edgeStyle=orthogonalEdgeStyle;rounded=0;orthogonalLoop=1;jettySize=auto;html=1;" parent="1" source="uIN8I7wuexz1z4Zl7SvW-82" target="uIN8I7wuexz1z4Zl7SvW-84" edge="1">
          <mxGeometry relative="1" as="geometry">
            <mxPoint x="1700" y="1160" as="targetPoint" />
          </mxGeometry>
        </mxCell>
        <mxCell id="uIN8I7wuexz1z4Zl7SvW-88" value="" style="edgeStyle=orthogonalEdgeStyle;rounded=0;orthogonalLoop=1;jettySize=auto;html=1;dashed=1;dashPattern=8 8;" parent="1" source="uIN8I7wuexz1z4Zl7SvW-86" target="uIN8I7wuexz1z4Zl7SvW-87" edge="1">
          <mxGeometry relative="1" as="geometry" />
        </mxCell>
        <mxCell id="uIN8I7wuexz1z4Zl7SvW-86" value="Skickar sammanfattande molekylärpatologiskt slutsvar" style="rounded=0;whiteSpace=wrap;html=1;fillColor=#d5e8d4;strokeColor=#82b366;" parent="1" vertex="1">
          <mxGeometry x="820" y="1250" width="120" height="60" as="geometry" />
        </mxCell>
        <mxCell id="uIN8I7wuexz1z4Zl7SvW-85" style="edgeStyle=orthogonalEdgeStyle;rounded=0;orthogonalLoop=1;jettySize=auto;html=1;" parent="1" source="uIN8I7wuexz1z4Zl7SvW-84" target="uIN8I7wuexz1z4Zl7SvW-86" edge="1">
          <mxGeometry relative="1" as="geometry">
            <mxPoint x="880" y="1280" as="targetPoint" />
            <Array as="points">
              <mxPoint x="1704" y="1280" />
            </Array>
          </mxGeometry>
        </mxCell>
        <mxCell id="uIN8I7wuexz1z4Zl7SvW-90" value="TakeCare" style="swimlane;whiteSpace=wrap" parent="1" vertex="1">
          <mxGeometry x="164.5" y="1600" width="280" height="1332" as="geometry" />
        </mxCell>
        <mxCell id="uIN8I7wuexz1z4Zl7SvW-91" value="" style="ellipse;shape=startState;fillColor=#000000;strokeColor=#ff0000;" parent="uIN8I7wuexz1z4Zl7SvW-90" vertex="1">
          <mxGeometry x="125" y="52" width="30" height="30" as="geometry" />
        </mxCell>
        <mxCell id="uIN8I7wuexz1z4Zl7SvW-92" value="" style="edgeStyle=elbowEdgeStyle;elbow=horizontal;verticalAlign=bottom;endArrow=open;endSize=8;strokeColor=#151414;endFill=1;rounded=0" parent="uIN8I7wuexz1z4Zl7SvW-90" source="uIN8I7wuexz1z4Zl7SvW-91" target="uIN8I7wuexz1z4Zl7SvW-93" edge="1">
          <mxGeometry x="100" y="40" as="geometry">
            <mxPoint x="115" y="110" as="targetPoint" />
          </mxGeometry>
        </mxCell>
        <mxCell id="uIN8I7wuexz1z4Zl7SvW-93" value="Gör en beställning" style="fillColor=#d5e8d4;strokeColor=#82b366;" parent="uIN8I7wuexz1z4Zl7SvW-90" vertex="1">
          <mxGeometry x="85" y="110" width="110" height="50" as="geometry" />
        </mxCell>
        <mxCell id="uIN8I7wuexz1z4Zl7SvW-94" value="Skickar prov" style="" parent="uIN8I7wuexz1z4Zl7SvW-90" vertex="1">
          <mxGeometry x="85" y="222" width="110" height="50" as="geometry" />
        </mxCell>
        <mxCell id="uIN8I7wuexz1z4Zl7SvW-95" value="" style="endArrow=open;strokeColor=#151414;endFill=1;rounded=0" parent="uIN8I7wuexz1z4Zl7SvW-90" source="uIN8I7wuexz1z4Zl7SvW-93" target="uIN8I7wuexz1z4Zl7SvW-94" edge="1">
          <mxGeometry relative="1" as="geometry" />
        </mxCell>
        <mxCell id="uIN8I7wuexz1z4Zl7SvW-98" value="Pre analytix" style="swimlane;whiteSpace=wrap" parent="1" vertex="1">
          <mxGeometry x="760" y="1600" width="305" height="1332" as="geometry" />
        </mxCell>
        <mxCell id="uIN8I7wuexz1z4Zl7SvW-99" style="edgeStyle=orthogonalEdgeStyle;rounded=0;orthogonalLoop=1;jettySize=auto;html=1;entryX=0.5;entryY=0.467;entryDx=0;entryDy=0;entryPerimeter=0;dashed=1;dashPattern=8 8;" parent="uIN8I7wuexz1z4Zl7SvW-98" source="uIN8I7wuexz1z4Zl7SvW-100" target="uIN8I7wuexz1z4Zl7SvW-103" edge="1">
          <mxGeometry relative="1" as="geometry" />
        </mxCell>
        <mxCell id="uIN8I7wuexz1z4Zl7SvW-100" value="Registrerar remiss" style="" parent="uIN8I7wuexz1z4Zl7SvW-98" vertex="1">
          <mxGeometry x="85.5" y="110" width="110" height="50" as="geometry" />
        </mxCell>
        <mxCell id="uIN8I7wuexz1z4Zl7SvW-101" value="Anger LID-nr" style="" parent="uIN8I7wuexz1z4Zl7SvW-98" vertex="1">
          <mxGeometry x="85" y="192" width="110" height="50" as="geometry" />
        </mxCell>
        <mxCell id="uIN8I7wuexz1z4Zl7SvW-102" value="" style="endArrow=open;strokeColor=#000000;endFill=1;rounded=0;entryX=0.15;entryY=0.02;entryDx=0;entryDy=0;entryPerimeter=0;" parent="uIN8I7wuexz1z4Zl7SvW-98" target="uIN8I7wuexz1z4Zl7SvW-101" edge="1">
          <mxGeometry relative="1" as="geometry">
            <mxPoint x="101.5" y="162" as="sourcePoint" />
          </mxGeometry>
        </mxCell>
        <mxCell id="uIN8I7wuexz1z4Zl7SvW-103" value="" style="shape=line;strokeWidth=6;strokeColor=#050505;rotation=90" parent="uIN8I7wuexz1z4Zl7SvW-98" vertex="1">
          <mxGeometry x="205.5" y="127.5" width="50" height="15" as="geometry" />
        </mxCell>
        <mxCell id="uIN8I7wuexz1z4Zl7SvW-104" value="" style="endArrow=open;strokeColor=#000000;endFill=1;rounded=0;entryX=0.72;entryY=1.047;entryDx=0;entryDy=0;entryPerimeter=0;exitX=0.726;exitY=-0.033;exitDx=0;exitDy=0;exitPerimeter=0;" parent="uIN8I7wuexz1z4Zl7SvW-98" source="uIN8I7wuexz1z4Zl7SvW-101" target="uIN8I7wuexz1z4Zl7SvW-100" edge="1">
          <mxGeometry relative="1" as="geometry">
            <mxPoint x="45.5" y="172" as="sourcePoint" />
            <mxPoint x="47" y="231" as="targetPoint" />
          </mxGeometry>
        </mxCell>
        <mxCell id="uIN8I7wuexz1z4Zl7SvW-105" value="Sympathy" style="swimlane;whiteSpace=wrap;strokeColor=#000000;" parent="1" vertex="1">
          <mxGeometry x="1065" y="1600" width="280" height="1330" as="geometry" />
        </mxCell>
        <mxCell id="uIN8I7wuexz1z4Zl7SvW-106" value="" style="edgeStyle=orthogonalEdgeStyle;rounded=0;orthogonalLoop=1;jettySize=auto;html=1;" parent="uIN8I7wuexz1z4Zl7SvW-105" source="uIN8I7wuexz1z4Zl7SvW-107" target="uIN8I7wuexz1z4Zl7SvW-109" edge="1">
          <mxGeometry relative="1" as="geometry" />
        </mxCell>
        <mxCell id="uIN8I7wuexz1z4Zl7SvW-107" value="Ankomstregistrerar &#xa;remiss" style="" parent="uIN8I7wuexz1z4Zl7SvW-105" vertex="1">
          <mxGeometry x="75.5" y="110" width="110" height="50" as="geometry" />
        </mxCell>
        <mxCell id="uIN8I7wuexz1z4Zl7SvW-109" value="Provhantering&lt;br&gt;(Snittning, inbäddning färgning etc.)" style="whiteSpace=wrap;html=1;" parent="uIN8I7wuexz1z4Zl7SvW-105" vertex="1">
          <mxGeometry x="70.5" y="210" width="120" height="60" as="geometry" />
        </mxCell>
        <mxCell id="uIN8I7wuexz1z4Zl7SvW-120" style="edgeStyle=orthogonalEdgeStyle;rounded=0;orthogonalLoop=1;jettySize=auto;html=1;dashed=1;dashPattern=8 8;" parent="1" source="uIN8I7wuexz1z4Zl7SvW-93" target="uIN8I7wuexz1z4Zl7SvW-100" edge="1">
          <mxGeometry relative="1" as="geometry" />
        </mxCell>
        <mxCell id="uIN8I7wuexz1z4Zl7SvW-121" value="Orderpportalen" style="swimlane;whiteSpace=wrap" parent="1" vertex="1">
          <mxGeometry x="1905" y="1600" width="280" height="1332" as="geometry" />
        </mxCell>
        <mxCell id="uIN8I7wuexz1z4Zl7SvW-122" value="Lägger besällning på gensekvensering (Nytt ID)" style="rounded=0;whiteSpace=wrap;html=1;" parent="uIN8I7wuexz1z4Zl7SvW-121" vertex="1">
          <mxGeometry x="95" y="1000" width="120" height="60" as="geometry" />
        </mxCell>
        <mxCell id="uIN8I7wuexz1z4Zl7SvW-123" style="edgeStyle=orthogonalEdgeStyle;rounded=0;orthogonalLoop=1;jettySize=auto;html=1;entryX=0;entryY=0.5;entryDx=0;entryDy=0;dashed=1;dashPattern=8 8;" parent="1" source="uIN8I7wuexz1z4Zl7SvW-103" target="uIN8I7wuexz1z4Zl7SvW-107" edge="1">
          <mxGeometry relative="1" as="geometry">
            <mxPoint x="1090.5" y="1735" as="targetPoint" />
          </mxGeometry>
        </mxCell>
        <mxCell id="uIN8I7wuexz1z4Zl7SvW-124" style="edgeStyle=orthogonalEdgeStyle;rounded=0;orthogonalLoop=1;jettySize=auto;html=1;entryX=0;entryY=0.5;entryDx=0;entryDy=0;" parent="1" source="uIN8I7wuexz1z4Zl7SvW-94" target="uIN8I7wuexz1z4Zl7SvW-107" edge="1">
          <mxGeometry relative="1" as="geometry">
            <mxPoint x="790" y="1732" as="targetPoint" />
            <Array as="points">
              <mxPoint x="1040" y="1852" />
              <mxPoint x="1040" y="1735" />
            </Array>
          </mxGeometry>
        </mxCell>
        <mxCell id="uIN8I7wuexz1z4Zl7SvW-125" style="edgeStyle=orthogonalEdgeStyle;rounded=0;orthogonalLoop=1;jettySize=auto;html=1;dashed=1;dashPattern=8 8;" parent="1" source="uIN8I7wuexz1z4Zl7SvW-107" target="uIN8I7wuexz1z4Zl7SvW-141" edge="1">
          <mxGeometry relative="1" as="geometry">
            <mxPoint x="1480.5" y="2070" as="targetPoint" />
            <Array as="points">
              <mxPoint x="1460" y="1735" />
              <mxPoint x="1460" y="2040" />
              <mxPoint x="1765" y="2040" />
            </Array>
          </mxGeometry>
        </mxCell>
        <mxCell id="uIN8I7wuexz1z4Zl7SvW-126" style="edgeStyle=orthogonalEdgeStyle;rounded=0;orthogonalLoop=1;jettySize=auto;html=1;entryX=0.5;entryY=0;entryDx=0;entryDy=0;dashed=1;dashPattern=8 8;" parent="1" source="uIN8I7wuexz1z4Zl7SvW-109" target="uIN8I7wuexz1z4Zl7SvW-141" edge="1">
          <mxGeometry relative="1" as="geometry">
            <mxPoint x="1485" y="2072" as="targetPoint" />
            <Array as="points">
              <mxPoint x="1460" y="1840" />
              <mxPoint x="1460" y="2040" />
              <mxPoint x="1765" y="2040" />
            </Array>
          </mxGeometry>
        </mxCell>
        <mxCell id="uIN8I7wuexz1z4Zl7SvW-128" value="IDS7" style="swimlane;whiteSpace=wrap" parent="1" vertex="1">
          <mxGeometry x="1625" y="1600" width="280" height="1332" as="geometry" />
        </mxCell>
        <mxCell id="uIN8I7wuexz1z4Zl7SvW-176" style="edgeStyle=orthogonalEdgeStyle;rounded=0;orthogonalLoop=1;jettySize=auto;html=1;" parent="uIN8I7wuexz1z4Zl7SvW-128" source="uIN8I7wuexz1z4Zl7SvW-141" target="uIN8I7wuexz1z4Zl7SvW-175" edge="1">
          <mxGeometry relative="1" as="geometry" />
        </mxCell>
        <mxCell id="uIN8I7wuexz1z4Zl7SvW-141" value="Inmatning av&lt;br style=&quot;border-color: var(--border-color);&quot;&gt;meta(kontext)-data för bilder" style="rounded=0;whiteSpace=wrap;html=1;" parent="uIN8I7wuexz1z4Zl7SvW-128" vertex="1">
          <mxGeometry x="80" y="470" width="120" height="60" as="geometry" />
        </mxCell>
        <mxCell id="uIN8I7wuexz1z4Zl7SvW-111" value="Inscanning" style="whiteSpace=wrap;html=1;" parent="uIN8I7wuexz1z4Zl7SvW-128" vertex="1">
          <mxGeometry x="80" y="260" width="120" height="60" as="geometry" />
        </mxCell>
        <mxCell id="uIN8I7wuexz1z4Zl7SvW-145" style="edgeStyle=orthogonalEdgeStyle;rounded=0;orthogonalLoop=1;jettySize=auto;html=1;entryX=0.5;entryY=0;entryDx=0;entryDy=0;dashed=1;dashPattern=8 8;" parent="uIN8I7wuexz1z4Zl7SvW-128" source="uIN8I7wuexz1z4Zl7SvW-111" target="uIN8I7wuexz1z4Zl7SvW-141" edge="1">
          <mxGeometry relative="1" as="geometry" />
        </mxCell>
        <mxCell id="uIN8I7wuexz1z4Zl7SvW-112" value="Ärendetilldelning" style="whiteSpace=wrap;html=1;" parent="uIN8I7wuexz1z4Zl7SvW-128" vertex="1">
          <mxGeometry x="80" y="360" width="120" height="60" as="geometry" />
        </mxCell>
        <mxCell id="uIN8I7wuexz1z4Zl7SvW-146" style="edgeStyle=orthogonalEdgeStyle;rounded=0;orthogonalLoop=1;jettySize=auto;html=1;entryX=0.5;entryY=0;entryDx=0;entryDy=0;dashed=1;dashPattern=8 8;" parent="uIN8I7wuexz1z4Zl7SvW-128" source="uIN8I7wuexz1z4Zl7SvW-112" target="uIN8I7wuexz1z4Zl7SvW-141" edge="1">
          <mxGeometry relative="1" as="geometry" />
        </mxCell>
        <mxCell id="uIN8I7wuexz1z4Zl7SvW-110" value="" style="edgeStyle=orthogonalEdgeStyle;rounded=0;orthogonalLoop=1;jettySize=auto;html=1;" parent="uIN8I7wuexz1z4Zl7SvW-128" source="uIN8I7wuexz1z4Zl7SvW-111" target="uIN8I7wuexz1z4Zl7SvW-112" edge="1">
          <mxGeometry relative="1" as="geometry" />
        </mxCell>
        <mxCell id="uIN8I7wuexz1z4Zl7SvW-175" value="Mikro- &amp;amp; Markroanalys" style="rounded=0;whiteSpace=wrap;html=1;" parent="uIN8I7wuexz1z4Zl7SvW-128" vertex="1">
          <mxGeometry x="80" y="592" width="120" height="60" as="geometry" />
        </mxCell>
        <mxCell id="uIN8I7wuexz1z4Zl7SvW-132" style="edgeStyle=orthogonalEdgeStyle;rounded=0;orthogonalLoop=1;jettySize=auto;html=1;dashed=1;dashPattern=8 8;" parent="1" source="uIN8I7wuexz1z4Zl7SvW-114" target="uIN8I7wuexz1z4Zl7SvW-97" edge="1">
          <mxGeometry relative="1" as="geometry">
            <mxPoint x="310" y="2422" as="targetPoint" />
            <Array as="points">
              <mxPoint x="598" y="2517" />
            </Array>
          </mxGeometry>
        </mxCell>
        <mxCell id="uIN8I7wuexz1z4Zl7SvW-133" value="Curator/MTBP" style="swimlane;whiteSpace=wrap" parent="1" vertex="1">
          <mxGeometry x="2185" y="1600" width="280" height="1332" as="geometry" />
        </mxCell>
        <mxCell id="uIN8I7wuexz1z4Zl7SvW-134" value="Analys av gensekvenseringen" style="rounded=0;whiteSpace=wrap;html=1;" parent="uIN8I7wuexz1z4Zl7SvW-133" vertex="1">
          <mxGeometry x="80" y="1130" width="120" height="60" as="geometry" />
        </mxCell>
        <mxCell id="uIN8I7wuexz1z4Zl7SvW-136" style="edgeStyle=orthogonalEdgeStyle;rounded=0;orthogonalLoop=1;jettySize=auto;html=1;" parent="1" source="uIN8I7wuexz1z4Zl7SvW-122" target="uIN8I7wuexz1z4Zl7SvW-134" edge="1">
          <mxGeometry relative="1" as="geometry">
            <mxPoint x="2396" y="2632" as="targetPoint" />
            <Array as="points">
              <mxPoint x="2060" y="2700" />
              <mxPoint x="2325" y="2700" />
            </Array>
          </mxGeometry>
        </mxCell>
        <mxCell id="uIN8I7wuexz1z4Zl7SvW-137" value="" style="edgeStyle=orthogonalEdgeStyle;rounded=0;orthogonalLoop=1;jettySize=auto;html=1;dashed=1;dashPattern=8 8;entryX=1;entryY=0.5;entryDx=0;entryDy=0;" parent="1" source="uIN8I7wuexz1z4Zl7SvW-138" target="uIN8I7wuexz1z4Zl7SvW-155" edge="1">
          <mxGeometry relative="1" as="geometry">
            <mxPoint x="720" y="2770" as="targetPoint" />
          </mxGeometry>
        </mxCell>
        <mxCell id="uIN8I7wuexz1z4Zl7SvW-139" style="edgeStyle=orthogonalEdgeStyle;rounded=0;orthogonalLoop=1;jettySize=auto;html=1;dashed=1;dashPattern=8 8;" parent="1" source="uIN8I7wuexz1z4Zl7SvW-134" target="uIN8I7wuexz1z4Zl7SvW-138" edge="1">
          <mxGeometry relative="1" as="geometry">
            <mxPoint x="1220.5" y="2752" as="targetPoint" />
            <Array as="points">
              <mxPoint x="2325" y="2850" />
            </Array>
          </mxGeometry>
        </mxCell>
        <mxCell id="uIN8I7wuexz1z4Zl7SvW-140" value="OpenEHR-formulär" style="swimlane;whiteSpace=wrap" parent="1" vertex="1">
          <mxGeometry x="1345" y="1600" width="280" height="1332" as="geometry" />
        </mxCell>
        <mxCell id="uIN8I7wuexz1z4Zl7SvW-118" value="Dokumenterar mikro och Makro" style="rounded=0;whiteSpace=wrap;html=1;strokeColor=#82b366;fillColor=#d5e8d4;" parent="uIN8I7wuexz1z4Zl7SvW-140" vertex="1">
          <mxGeometry x="80" y="767" width="120" height="60" as="geometry" />
        </mxCell>
        <mxCell id="uIN8I7wuexz1z4Zl7SvW-142" value="" style="edgeStyle=orthogonalEdgeStyle;rounded=0;orthogonalLoop=1;jettySize=auto;html=1;" parent="uIN8I7wuexz1z4Zl7SvW-140" source="uIN8I7wuexz1z4Zl7SvW-114" target="uIN8I7wuexz1z4Zl7SvW-117" edge="1">
          <mxGeometry relative="1" as="geometry" />
        </mxCell>
        <mxCell id="uIN8I7wuexz1z4Zl7SvW-114" value="Sammanfattar svar" style="whiteSpace=wrap;html=1;rounded=0;fillColor=#d5e8d4;strokeColor=#82b366;" parent="uIN8I7wuexz1z4Zl7SvW-140" vertex="1">
          <mxGeometry x="80" y="887" width="120" height="60" as="geometry" />
        </mxCell>
        <mxCell id="uIN8I7wuexz1z4Zl7SvW-119" value="" style="edgeStyle=orthogonalEdgeStyle;rounded=0;orthogonalLoop=1;jettySize=auto;html=1;" parent="uIN8I7wuexz1z4Zl7SvW-140" source="uIN8I7wuexz1z4Zl7SvW-118" target="uIN8I7wuexz1z4Zl7SvW-114" edge="1">
          <mxGeometry relative="1" as="geometry" />
        </mxCell>
        <mxCell id="uIN8I7wuexz1z4Zl7SvW-116" value="Skriver remiss för tilläggsutredning" style="whiteSpace=wrap;html=1;rounded=0;fillColor=#d5e8d4;strokeColor=#82b366;" parent="uIN8I7wuexz1z4Zl7SvW-140" vertex="1">
          <mxGeometry x="80" y="1117" width="120" height="60" as="geometry" />
        </mxCell>
        <mxCell id="uIN8I7wuexz1z4Zl7SvW-143" value="" style="edgeStyle=orthogonalEdgeStyle;rounded=0;orthogonalLoop=1;jettySize=auto;html=1;" parent="uIN8I7wuexz1z4Zl7SvW-140" source="uIN8I7wuexz1z4Zl7SvW-117" target="uIN8I7wuexz1z4Zl7SvW-116" edge="1">
          <mxGeometry relative="1" as="geometry" />
        </mxCell>
        <mxCell id="uIN8I7wuexz1z4Zl7SvW-117" value="Provhantering" style="whiteSpace=wrap;html=1;rounded=0;strokeColor=#82b366;fillColor=#d5e8d4;" parent="uIN8I7wuexz1z4Zl7SvW-140" vertex="1">
          <mxGeometry x="80" y="995" width="120" height="60" as="geometry" />
        </mxCell>
        <mxCell id="uIN8I7wuexz1z4Zl7SvW-138" value="Sammanfattar slutsvar för genanalysen" style="rounded=0;whiteSpace=wrap;html=1;fillColor=#d5e8d4;strokeColor=#82b366;" parent="uIN8I7wuexz1z4Zl7SvW-140" vertex="1">
          <mxGeometry x="85.5" y="1220" width="120" height="60" as="geometry" />
        </mxCell>
        <mxCell id="uIN8I7wuexz1z4Zl7SvW-144" style="edgeStyle=orthogonalEdgeStyle;rounded=0;orthogonalLoop=1;jettySize=auto;html=1;exitX=0.516;exitY=1.008;exitDx=0;exitDy=0;exitPerimeter=0;" parent="1" source="uIN8I7wuexz1z4Zl7SvW-175" target="uIN8I7wuexz1z4Zl7SvW-118" edge="1">
          <mxGeometry relative="1" as="geometry">
            <mxPoint x="1746" y="2306" as="sourcePoint" />
            <Array as="points">
              <mxPoint x="1767" y="2305" />
              <mxPoint x="1486" y="2305" />
            </Array>
          </mxGeometry>
        </mxCell>
        <mxCell id="uIN8I7wuexz1z4Zl7SvW-154" value="Översikt" style="swimlane;whiteSpace=wrap" parent="1" vertex="1">
          <mxGeometry x="440" y="1601" width="316" height="1332" as="geometry" />
        </mxCell>
        <mxCell id="uIN8I7wuexz1z4Zl7SvW-155" value="Molekylärpatologisvar" style="rounded=0;whiteSpace=wrap;html=1;" parent="uIN8I7wuexz1z4Zl7SvW-154" vertex="1">
          <mxGeometry x="98" y="1220" width="120" height="60" as="geometry" />
        </mxCell>
        <mxCell id="uIN8I7wuexz1z4Zl7SvW-97" value="Patologisvar" style="rounded=0;whiteSpace=wrap;html=1;" parent="uIN8I7wuexz1z4Zl7SvW-154" vertex="1">
          <mxGeometry x="98" y="886" width="120" height="60" as="geometry" />
        </mxCell>
        <mxCell id="uIN8I7wuexz1z4Zl7SvW-156" value="Klinisk genetiksvar" style="rounded=0;whiteSpace=wrap;html=1;" parent="uIN8I7wuexz1z4Zl7SvW-154" vertex="1">
          <mxGeometry x="98" y="996" width="120" height="60" as="geometry" />
        </mxCell>
        <mxCell id="uIN8I7wuexz1z4Zl7SvW-157" value="Farmakologisvar" style="rounded=0;whiteSpace=wrap;html=1;" parent="uIN8I7wuexz1z4Zl7SvW-154" vertex="1">
          <mxGeometry x="98" y="1105" width="120" height="60" as="geometry" />
        </mxCell>
        <mxCell id="uIN8I7wuexz1z4Zl7SvW-158" style="edgeStyle=orthogonalEdgeStyle;rounded=0;orthogonalLoop=1;jettySize=auto;html=1;entryX=0.5;entryY=0;entryDx=0;entryDy=0;" parent="1" source="uIN8I7wuexz1z4Zl7SvW-116" target="uIN8I7wuexz1z4Zl7SvW-122" edge="1">
          <mxGeometry relative="1" as="geometry" />
        </mxCell>
        <mxCell id="uIN8I7wuexz1z4Zl7SvW-172" style="edgeStyle=orthogonalEdgeStyle;rounded=0;orthogonalLoop=1;jettySize=auto;html=1;entryX=0.5;entryY=1;entryDx=0;entryDy=0;" parent="1" source="8" target="15" edge="1">
          <mxGeometry relative="1" as="geometry" />
        </mxCell>
        <mxCell id="uIN8I7wuexz1z4Zl7SvW-54" value="" style="edgeStyle=orthogonalEdgeStyle;rounded=0;orthogonalLoop=1;jettySize=auto;html=1;" parent="1" source="uIN8I7wuexz1z4Zl7SvW-51" target="uIN8I7wuexz1z4Zl7SvW-53" edge="1">
          <mxGeometry relative="1" as="geometry" />
        </mxCell>
        <mxCell id="uIN8I7wuexz1z4Zl7SvW-108" value="" style="edgeStyle=orthogonalEdgeStyle;rounded=0;orthogonalLoop=1;jettySize=auto;html=1;entryX=0.5;entryY=0;entryDx=0;entryDy=0;" parent="1" source="uIN8I7wuexz1z4Zl7SvW-109" target="uIN8I7wuexz1z4Zl7SvW-111" edge="1">
          <mxGeometry relative="1" as="geometry">
            <Array as="points">
              <mxPoint x="1765" y="1840" />
            </Array>
          </mxGeometry>
        </mxCell>
      </root>
    </mxGraphModel>
  </diagram>
</mxfile>
